<svg xmlns="http://www.w3.org/2000/svg" viewBox="0 0 448.76 448.78"><defs><style>.cls-1{fill:none;}</style></defs><title>bstu</title><g id="Layer_2" data-name="Layer 2"><g id="Layer_1-2" data-name="Layer 1"><path class="cls-1" d="M326.18,52.25a207,207,0,0,0-42.62-18.88c-.75-.23,0,0-2.47-.83v404.4c.65-.14,1-.21,1.36-.3l1.88-.5A217.87,217.87,0,0,0,325.09,420l3.23-1.92h0s0-.36,0-3.26q0-103.85,0-207.61v-151A3.92,3.92,0,0,0,326.18,52.25Z"/><path class="cls-1" d="M158.43,110.54C158.43,164,245,283.3,245,341.3c0,79.94-89.47,86.25-110.63,83.21a1.28,1.28,0,0,0-.26,0s22.79,13,73.18,19.21a231.29,231.29,0,0,0,45.56-1.12c3.65-.44,3.66-.42,3.66-4.13V135.57c0-34.8-.06-108.92-.06-108.92C227.75,27.09,158.43,25,158.43,110.54Z"/><path class="cls-1" d="M411.36,153.43a198.09,198.09,0,0,0-29-51.44,8.23,8.23,0,0,1-1.63-4.51c-.15-8.73.1-16.79,0-25.52a5.56,5.56,0,0,0-1.6-3.83,222.71,222.71,0,0,0-24.55-21,3.07,3.07,0,0,0-1.66-.66V377.36c.6-.47,1.54-1.14,2.08-1.61a202.9,202.9,0,0,0,19.71-19.63C404.8,321.41,421.46,281.18,424,235.3A194.77,194.77,0,0,0,411.36,153.43Z"/><path class="cls-1" d="M124.81,394.26s5.88,3.19,18.78,3.19c63.87,0,74.31-31.87,74.31-55.16,0-60-88.45-168.8-88.45-231.75,0-4.86-3.24-84.53,72.76-105.36-52.34,6.5-99,29.43-134.67,65a5.43,5.43,0,0,0,.68.6c.4.24.82.45,1.23.66a95.29,95.29,0,0,1,33.49,28.73c15.24,20.75,22.25,44.15,22.33,69.79.07,19.74-6.41,37.06-18.76,52.32l-1.81,2.32a67.75,67.75,0,0,1,7.16,6.28c10.45,10.91,17,23.69,19,38.77.71,5.28.45,10.56.46,15.84.06,34.61,0,85.6,0,98C131.37,390.19,124.81,394.26,124.81,394.26Z"/><path d="M224.55,0C100.54,0-.17,100.56,0,224.48.17,349,101,448.81,224.41,448.78c124,0,224.32-100.36,224.35-224.3S348.41,0,224.55,0ZM20,216.31c1.94-41,13.31-76.76,37.21-110.13.44-.61,3.5-5.41,7.9-2.76,0,0,13.42,7.92,20,14.75,10.58,10.94,17.33,23.82,19.21,39,2.24,18-2.51,34.18-13.35,48.63A77.61,77.61,0,0,1,80.5,216.91a6.28,6.28,0,0,1-4.5,1.71c-8.91-.08-17.82,0-26.73,0v0H20S19.94,217.53,20,216.31ZM108.13,377c0,7.57-7.95,9.87-11.75,6.8C59.82,354.32,35.8,316.45,24.77,270a192.82,192.82,0,0,1-4.7-32.43c-.07-1.15-.1-2.23-.1-3.43,4.23-.06,2.34-.06,4.23-.06,17.34,0,34.69,0,52,0,6.7,0,5.18-.68,10.24,4.1a67.62,67.62,0,0,1,21.16,40.49,56.44,56.44,0,0,1,.5,7.9Zm23.22-91.57c0-5.28.25-10.56-.46-15.84-2-15.08-8.58-27.86-19-38.77a67.75,67.75,0,0,0-7.16-6.28l1.81-2.32c12.35-15.26,18.83-32.58,18.76-52.32-.08-25.64-7.09-49-22.33-69.79A95.29,95.29,0,0,0,69.45,71.42c-.41-.21-.83-.42-1.23-.66a5.43,5.43,0,0,1-.68-.6c35.64-35.55,82.33-58.48,134.67-65-76,20.83-72.76,100.5-72.76,105.36,0,63,88.45,171.8,88.45,231.75,0,23.29-10.44,55.16-74.31,55.16-12.9,0-18.78-3.19-18.78-3.19s6.56-4.07,6.56-10.83C131.37,371.07,131.41,320.08,131.35,285.47Zm125.13,153c0,3.71,0,3.69-3.66,4.13a231.29,231.29,0,0,1-45.56,1.12c-50.39-6.2-73.18-19.21-73.18-19.21a1.28,1.28,0,0,1,.26,0c21.16,3,110.63-3.27,110.63-83.21,0-58-86.54-177.29-86.54-230.76,0-85.53,69.32-83.45,98-83.89,0,0,.06,74.12.06,108.92Zm71.86-231.27q0,103.85,0,207.61c0,2.9,0,3.24,0,3.26h0L325.09,420a217.87,217.87,0,0,1-40.76,16.16l-1.88.5c-.36.09-.71.16-1.36.3V32.54c2.47.83,1.72.6,2.47.83a207,207,0,0,1,42.62,18.88,3.92,3.92,0,0,1,2.16,4Zm46.4,148.93A202.9,202.9,0,0,1,355,375.75c-.54.47-1.48,1.14-2.08,1.61V46.42a3.07,3.07,0,0,1,1.66.66,222.71,222.71,0,0,1,24.55,21,5.56,5.56,0,0,1,1.6,3.83c.1,8.73-.15,16.79,0,25.52a8.23,8.23,0,0,0,1.63,4.51,198.09,198.09,0,0,1,29,51.44A194.77,194.77,0,0,1,424,235.3C421.46,281.18,404.8,321.41,374.74,356.12Z"/><path d="M224.38,10.43a214,214,0,0,1,83.28,411.11A214,214,0,0,1,141.1,27.24a212.68,212.68,0,0,1,83.28-16.81m0-6c-121.48,0-220,98.48-220,220s98.48,220,220,220,220-98.48,220-220-98.48-220-220-220Z"/></g></g></svg>