<?xml version="1.0" encoding="UTF-8"?> <!-- Generator: Adobe Illustrator 22.0.1, SVG Export Plug-In . SVG Version: 6.00 Build 0) --> <svg xmlns="http://www.w3.org/2000/svg" xmlns:xlink="http://www.w3.org/1999/xlink" id="Layer_1" x="0px" y="0px" viewBox="0 0 370.7139893 51.4102936" style="enable-background:new 0 0 370.7139893 51.4102936;" xml:space="preserve"> <style type="text/css"> .st0{fill:#000000;} </style> <path class="st0" d="M66.7465286,27.1287746c-0.3974762-0.5021648-0.8325043-0.9750862-1.2951813-1.4225979 c0.4625854-0.4466133,0.9008636-0.9204636,1.303009-1.4301357c0.1575928-0.1997185,0.3119583-0.4025097,0.4600067-0.6110573 c0.2744904-0.3866806,0.5332794-0.787468,0.7733765-1.2033539c0.2731476-0.4730625,0.5162582-0.957571,0.7343826-1.4500332 c1.3793259-3.1143456,1.6560059-6.5784292,0.7619553-9.9150791c-1.2732697-4.7518878-4.7085037-8.3580294-8.964035-10.0461721 c-0.8331985-0.3305137-1.7003441-0.5780073-2.5863342-0.7557176c-2.1852875-0.4382495-4.4981308-0.4034482-6.7928543,0.2114165 L50.4844551,0.681927l-2.8110237,0.7532094l-6.069622,1.626352l-2.0782166,0.5568542l-0.0970993,0.0260208l-0.0126801,0.0034015 l-0.0231857,0.0062077l-0.0488091,0.0130758L39.2721672,3.686249l-2.2358131,0.5990899l-0.1097755,0.0294094L36.274044,4.4895949 l-1.4256859,0.3820076l-0.4823761,0.1292586l-0.9029503,0.2419462l-2.8009853,0.7505221L28.778738,6.4979544l-1.3853397,0.3712015 l-1.425684,0.3820081l-0.6525345,0.1748466l-0.1097794,0.0294218l-2.2358131,0.5990777l-0.0716476,0.0192003l-0.0488091,0.0130758 l-0.0231895,0.0062199l-0.0126781,0.0033894l-2.1753159,0.5828753l-6.0696211,1.6263514l-2.8110237,0.7532101l-0.6563854,0.1758728 c-2.879735,0.7716122-5.3365417,2.339056-7.2029772,4.4000378c-0.0424573,0.0468922-0.0843263,0.0942669-0.1261735,0.1416616 c-0.057255,0.0644083-0.1148596,0.1284523-0.1710567,0.1939163C3.4814563,16.1101665,3.3643703,16.25173,3.250437,16.3956814 c-1.1513634,1.4546375-2.0284224,3.1147518-2.5799165,4.8910446c-0.001863,0.0060425-0.0038767,0.0119915-0.0057237,0.0180244 c-0.0293131,0.094841-0.0565312,0.1904049-0.0839826,0.2858791c-0.0168878,0.0591335-0.0342381,0.1180229-0.0504565,0.1775398 c-0.012513,0.0456371-0.0240126,0.0915871-0.0361027,0.1373653c-0.0452649,0.1724682-0.0881983,0.3451843-0.127231,0.5182533 c-0.003538,0.0156307-0.0073886,0.0311642-0.0108761,0.0468082c-0.0444526,0.2000198-0.0847316,0.4003849-0.1208923,0.6010017 c-0.0025876,0.01441-0.0049006,0.0289059-0.0074538,0.0433369c-0.0327946,0.1850204-0.0617305,0.3702507-0.0875012,0.5555954 c-0.0033171,0.0240059-0.0069974,0.0479012-0.0102134,0.0719337c-0.0256599,0.1914024-0.0474788,0.3829269-0.0656738,0.5744743 c-0.0037663,0.0401402-0.0065265,0.0804672-0.0099827,0.1206627c-0.0122608,0.1411934-0.022065,0.2823677-0.0302729,0.4235516 c-0.0039839,0.0698643-0.0081447,0.1396828-0.011141,0.2097034c-0.0054522,0.1235695-0.0083389,0.2470665-0.0106888,0.3705311 c-0.002559,0.1432533-0.0029895,0.2867489-0.0013842,0.4305344c0.0006561,0.065136,0.0011722,0.1302872,0.0026703,0.195364 c0.0029751,0.1223469,0.0071981,0.2448368,0.0132211,0.3674831c0.0012935,0.0268669,0.0030986,0.0536957,0.004532,0.0805454 c0.0552567,1.0123596,0.21445,2.033783,0.486231,3.0512409c0.0026135,0.0097084,0.005383,0.0193901,0.0080126,0.0290871 c0.0490366,0.1821079,0.1020286,0.3624439,0.157423,0.5416489c0.019007,0.0608959,0.038814,0.1215878,0.0586176,0.182291 c0.0388098,0.1201363,0.0791231,0.2395649,0.1207805,0.358326c0.0460131,0.1298008,0.0935149,0.259201,0.1431976,0.3879929 c0.017119,0.0448418,0.0341647,0.0897045,0.0516936,0.1343307c0.0724317,0.182497,0.1476918,0.3641949,0.2275239,0.5444489 c0.218116,0.4924641,0.4612402,0.9769764,0.7343849,1.4500408c0.2400739,0.4158745,0.4988713,0.8166656,0.7733676,1.2033539 c0.1480474,0.2085419,0.3024056,0.4113235,0.4600079,0.6110497c0.2289734,0.2901878,0.4689178,0.5698128,0.7171714,0.8407173 c0.0460911,0.0498962,0.0920982,0.0998497,0.1389074,0.1491394c0.0677509,0.0719261,0.1366878,0.1426125,0.2057738,0.2130928 c0.112813,0.1141357,0.2263322,0.2276077,0.342978,0.3382072c0.0090137,0.0086174,0.0180049,0.0172729,0.027051,0.0258713 c0.4562235,0.4304085,0.9411831,0.833847,1.4533687,1.2075043c0.4351349,0.3174324,0.8879395,0.6154785,1.3610234,0.888588 c0.4158392,0.2401237,0.8403702,0.4578171,1.2714272,0.6554527c0.2324877,0.1065712,0.4675589,0.2050171,0.7039022,0.2991714 c0.3713722,0.1479721,0.7472439,0.280571,1.1268063,0.397728c0.0102768,0.0031471,0.020751,0.0058594,0.0310354,0.0089798 c0.1595383,0.0483818,0.3194857,0.0959015,0.481308,0.1392479l11.7482405,3.1479301l0.0654106,0.0175285l0.0625668,0.0167656 l7.6409473,2.0473824l3.70121,0.9917374l4.945343,1.3250999l0.0625648,0.0167656l0.0653992,0.0175247l11.7482529,3.147934 c2.2040062,0.5907097,4.4616508,0.6588326,6.6392288,0.2472115c0.9348412-0.1767159,1.8564262-0.4325905,2.7502327-0.7887306 c0.2363396-0.0941696,0.4714088-0.1926041,0.7039032-0.2991829c0.4310532-0.1976357,0.8555756-0.4153328,1.2714348-0.6554489 c0.4730835-0.2731133,0.9258766-0.5711517,1.3610153-0.8885803c2.7517014-2.0074387,4.7233582-4.8690834,5.6174088-8.2057343 C70.7597809,35.5591469,69.5878525,30.7185116,66.7465286,27.1287746z M22.1562309,11.3299046l0.3237572-0.0867538 l2.7752876-0.7436333l0.0933495-0.0250206l0.7375603-0.1976271l0.9939022-0.2663097l1.9660778-0.5268049l1.0496044-0.28125 l0.073267-0.0196333l1.0027447-0.2686806c-0.1538448,1.7984476-0.127615,3.7011795,0.0566635,5.6401119l-0.5036564-0.1349545 l-0.0716534-0.0191994l-0.0488033-0.0130768l-0.0231895-0.0062141l-0.0126762-0.003396l-2.1753178-0.5828743l-6.0696239-1.6263514 l-1.6479931-0.4415779L22.1562309,11.3299046z M31.6585388,33.6799507l-0.4464626,3.1770248 c-0.1889458,1.9349556-0.2201328,3.8333969-0.071619,5.6273842l-1.0027256-0.2686806l-9.4622803-2.5354233l-8.8077621-2.3600464 c-2.3304777-0.6244507-4.3709469-1.9048462-5.9239635-3.6812248c-1.0343413-1.173687-1.8307395-2.5453014-2.3440297-4.0559254 c-0.0191505-0.0557613-0.0387733-0.1113777-0.0570791-0.1673584c-0.0257392-0.0794945-0.0496783-0.1597958-0.0738409-0.2400188 c-0.032495-0.106905-0.0644395-0.213892-0.0938728-0.3215084c-0.0037026-0.013628-0.0081887-0.0269127-0.0118434-0.0405693 c-0.0064561-0.0240784-0.0111246-0.0482063-0.0174191-0.0722809c-0.0427763-0.1626053-0.0822256-0.3258495-0.1180224-0.4898357 c-0.006171-0.0283756-0.0120726-0.0567493-0.0180407-0.085125c-0.035907-0.1704502-0.0680277-0.3414822-0.0963831-0.5131721 c-0.0040152-0.0242901-0.0082116-0.048563-0.0120652-0.0728512c-0.0278144-0.1751747-0.0516722-0.3508606-0.0716047-0.527092 c-0.0023241-0.0204926-0.0051336-0.0409927-0.0073535-0.0614719c-0.0196254-0.1820278-0.035239-0.3644714-0.0464242-0.5473652 c-0.0008309-0.0134296-0.002207-0.0268955-0.0029967-0.0403271c-0.0221932-0.3842449-0.0267415-0.7699928-0.0114551-1.1563168 c0.0034194-0.0891418,0.0107629-0.1776104,0.0161703-0.2664356c0.0057919-0.0933952,0.0102665-0.1867771,0.0182581-0.2801933 c0.0102396-0.1212158,0.0244198-0.2416191,0.038316-0.3621254c0.007031-0.060461,0.0128846-0.1209278,0.0208416-0.1813564 c0.0170915-0.1306629,0.0377004-0.2604504,0.0590408-0.3901367c0.0084593-0.0512352,0.0162115-0.1025085,0.0253367-0.1536999 c0.0232766-0.1308479,0.0495598-0.2608356,0.0771148-0.3905621c0.0112016-0.0527744,0.0221591-0.105547,0.0340772-0.1582661 c0.0277221-0.1223145,0.0576749-0.2438564,0.0891542-0.3650284c0.0091143-0.0352802,0.0164483-0.0707378,0.0258923-0.1059837 c0.0074596-0.0278397,0.0167055-0.0547123,0.0243573-0.0824604c0.0344055-0.1242085,0.0710595-0.2475567,0.1093841-0.3704166 c0.0250461-0.0807858,0.0503366-0.1613712,0.0769486-0.2412777c0.0306423-0.0914097,0.0630171-0.1820564,0.0958066-0.2726326 c0.0386415-0.1073627,0.0777938-0.2143574,0.1192439-0.3200169c0.0224321-0.0568771,0.0461867-0.1131287,0.0694568-0.1696453 c0.0548978-0.1338596,0.1109936-0.2668839,0.1703401-0.3978863c0.0114293-0.0251637,0.023613-0.0499096,0.0352092-0.0749874 c0.0724893-0.1571026,0.1473303-0.3125191,0.2260408-0.4653397c0.0002003-0.0003929,0.000422-0.0007668,0.0006223-0.0011597 c0.263989-0.5124378,0.5614386-1.0010376,0.8905973-1.4625988c0.0340919-0.0480213,0.0704446-0.0944233,0.1052423-0.1419449 c0.0738392-0.1003685,0.1471019-0.2012177,0.2238383-0.298954c2.885088-3.6750422,7.7883148-5.4866238,12.579174-4.2028894 l0.0105,0.0028133l4.0095959,1.0743685l2.4510117,0.6567459l3.819849,1.0235252l0.3237514,0.08675l2.7752953,0.7436371 l0.0933514,0.025013l0.0908852,0.024353l0.6466732,0.173275l0.9939003,0.2663155l1.6547928,0.4434013l0.3112793,0.0834064 l1.0496101,0.2812424l0.0732689,0.0196323l1.002739,0.2686825c-0.5595932,0.8024673-1.0885353,1.6582642-1.5851555,2.5551872 c-0.6820793,1.2318401-1.3014984,2.5427761-1.8519859,3.9048634C32.9370041,28.2589989,32.153862,30.9695702,31.6585388,33.6799507z M36.5339355,15.9759045l-1.3853302-0.3711977l-0.7286606-0.1952438c-0.3113899-2.5785809-0.3098335-5.1068296,0.0612869-7.38204 l0.2430916-0.0651345l1.9660645-0.5268092l0.9939003-0.2663093l0.7375488-0.1976304l0.0933609-0.0250049l2.7753029-0.7436423 l0.3237572-0.0867543l3.8198242-1.0235176l2.4510384-0.6567535l1.049614-0.2812462l2.9599686-0.7931185l0.0105057-0.0028191 c0.2574654-0.0689905,0.5152664-0.1257823,0.7730598-0.1771033c1.87043-0.3722382,3.7396088-0.2841084,5.4831696,0.1916509 c2.679882,0.7312238,5.0612946,2.3751099,6.6839981,4.6723785c0.7953415,1.1259565,1.4089355,2.4079266,1.7860336,3.8152838 c0.3790894,1.4147863,0.4956512,2.8579121,0.3581772,4.2731705c-0.1373215,1.4137154-0.5280991,2.799551-1.1642685,4.1013527 c-0.1235046,0.2527771-0.2529602,0.5035286-0.394989,0.7495251c-0.3833466,0.6639843-0.8244247,1.2812786-1.3137436,1.8499985 c-0.204174,0.2372971-0.4179611,0.4648132-0.6389542,0.6843586c-0.1143074,0.1135521-0.2334595,0.2215672-0.3520889,0.3301697 c-1.2716713-0.8241749-2.6883812-1.4686966-4.2295532-1.8816528l-0.6563873-0.1758785l-2.8110313-0.7532139l-6.0696144-1.6263485 l-2.0782242-0.5568581l-0.0970917-0.0260162l-0.0126877-0.0033989l-0.0231781-0.0062103l-0.0488167-0.0130806l-0.07164-0.0191956 l-2.2358246-0.5990887l-0.1097794-0.0294151l-0.652523-0.1748428l-1.4256897-0.3820133l-0.4823761-0.1292515l-0.9029541-0.2419453 l-2.8009872-0.7505226L36.5339355,15.9759045z M64.8075104,43.4264679 c-0.8257828,1.1556396-1.8571243,2.1604271-3.0589638,2.9697418c-0.2333565,0.1571503-0.4708252,0.3095818-0.7168274,0.4516029 c-0.6639786,0.383358-1.3546143,0.6974182-2.0627403,0.9452744c-0.2954712,0.1034203-0.5943756,0.1935577-0.8955269,0.2731895 c-1.7612038,0.4657326-3.6086426,0.5198097-5.4262695,0.1515884c-0.2470245-0.050045-0.4939041-0.1031647-0.7395058-0.1689758 l-3.0138626-0.80756l-14.4503593-3.8719368c-0.3636856-2.2696342-0.3576126-4.7931519-0.0384064-7.3679695 c0.1319771-1.0645447,0.3171005-2.1376343,0.5527115-3.2054939c0.2348213-1.0642567,0.5186844-2.1230488,0.8488541-3.1622562 c0.4272041-1.3446941,0.9322815-2.655386,1.5045815-3.9038429c0.9548416-2.0829906,2.098835-3.9906464,3.3965225-5.5781326 l0.2430878,0.065136l1.9660721,0.5268059l0.9939041,0.2663155l0.737545,0.1976261l0.0933495,0.025013l2.7753067,0.7436409 l0.3237534,0.08675l3.8198357,1.0235214l2.4510231,0.6567497l1.0496216,0.2812443l2.9599609,0.7931194l0.0105171,0.0028172 c0.2574692,0.0689888,0.5091248,0.1487064,0.7580376,0.2331581c0.5350266,0.1815548,1.0469856,0.4019794,1.5395622,0.6501637 c0.9914818,0.4995403,1.8942986,1.1251507,2.6911507,1.8548756c0.1435356,0.1314564,0.2853737,0.2646122,0.4220238,0.4025135 c1.9552345,1.9732075,3.195652,4.5875549,3.4523277,7.3883972c0.1258011,1.3727875,0.0162048,2.7897987-0.3608932,4.197155 C66.2548141,40.961483,65.634201,42.2695503,64.8075104,43.4264679z"></path> <g> <path class="st0" d="M93.2969971,42.2266312l0.7543945-2.6152344c2.1625977,0.5527344,3.5205078,0.2763672,4.5766602-2.6152344 l0.5532227-1.5087891l-7.1416016-19.4130859h3.21875l5.3310547,15.3896484h0.2011719l5.3310547-15.3896484l3.2436523,0.050293 l-8.2226563,22.0786133c-1.1064453,2.9550781-3.0048828,4.375-5.6831055,4.375 C94.4537354,42.5781937,93.5987549,42.3770218,93.2969971,42.2266312z"></path> <path class="st0" d="M114.866333,25.8311234c0-6.0351563,3.5205078-10.0082998,8.7509766-10.0082998 s8.7509766,3.9731436,8.7509766,10.0082998c0,5.9853516-3.5205078,9.9580078-8.7509766,9.9580078 S114.866333,31.8164749,114.866333,25.8311234z M129.401001,25.8311234c0-3.8725586-1.8105469-7.3427734-5.7836914-7.3427734 s-5.7836914,3.4702148-5.7836914,7.3427734c0,3.8730469,1.8105469,7.2919922,5.7836914,7.2919922 S129.401001,29.7041702,129.401001,25.8311234z"></path> <path class="st0" d="M152.2530518,16.0742874h2.9672852v19.3125h-2.9672852v-3.2695313h-0.2011719 c-0.9052734,1.9619141-2.8164063,3.5214844-5.7333984,3.5214844c-3.6210938,0-6.2363281-2.3642578-6.2363281-7.2929688V16.0742874 h2.9672852v12.0703125c0,2.8164063,1.7602539,4.6269531,4.2246094,4.6269531c2.2128906,0,4.9790039-1.6591797,4.9790039-5.2807617 V16.0742874z"></path> <path class="st0" d="M163.8394775,16.0742874h2.8666992v2.9169922h0.2011719 c0.7041016-1.9111328,2.7158203-3.218749,5.0292969-3.218749c0.4399414,0,1.2197266,0.0253906,1.559082,0.050293v3.0175772 c-0.2011719-0.050293-1.0185547-0.2011719-1.8105469-0.2011719c-2.8164063,0-4.878418,1.9111328-4.878418,4.5263672v12.2211914 h-2.9672852V16.0742874z"></path> <path class="st0" d="M191.2178955,21.1538773c-0.515625-1.3325195-1.5839844-2.7661133-4.1743164-2.7661133 c-2.3637695,0-4.1240234,1.2070313-4.1240234,2.8666992c0,1.4838867,1.0307617,2.2504883,3.3193359,2.8164063l2.8666992,0.7041016 c3.4453125,0.8422852,5.1298828,2.5395508,5.1298828,5.230957c0,3.3310547-3.0551758,5.7832031-7.5439453,5.7832031 c-3.9482422,0-6.6513672-1.7480469-7.3427734-5.0292969l2.8164063-0.7041016 c0.5283203,2.0742188,2.0493164,3.1181641,4.4760742,3.1181641c2.7661133,0,4.5263672-1.3574219,4.5263672-3.0175781 c0-1.3330078-0.9179688-2.2626953-2.8666992-2.7158203l-3.21875-0.7543945 c-3.5458984-0.8295898-5.1298828-2.6152344-5.1298828-5.2807617c0-3.269043,3.0175781-5.5825186,7.0913086-5.5825186 c3.8222656,0,5.909668,1.8354483,6.8398438,4.5766592L191.2178955,21.1538773z"></path> <path class="st0" d="M200.3897705,16.0742874h3.1181641l4.1743164,14.7861328h0.2011719l4.1240234-14.7861328h3.168457 l4.0737305,14.7363281h0.2011719l4.1743164-14.7363281h3.1181641l-5.8842773,19.3125h-2.9169922l-4.2246094-14.8364258h-0.3017578 L209.19104,35.3867874h-2.9169922L200.3897705,16.0742874z"></path> <path class="st0" d="M232.2950439,25.8814163c0-5.9345703,3.4702148-10.0585928,8.7006836-10.0585928 c4.0234375,0,8.2983398,2.4643545,8.2983398,9.656249v1.2573242h-14.019043 c0.1381836,4.1367188,2.5395508,6.3867188,6.0224609,6.3867188c2.3261719,0,4.0737305-1.0058594,4.828125-3.0166016 l2.8666992,0.8046875c-0.9052734,2.9169922-3.7719727,4.8779297-7.6948242,4.8779297 C235.7149658,35.7891312,232.2950439,31.8164749,232.2950439,25.8814163z M246.2764893,24.1714554 c0-3.269043-2.0620117-5.6831055-5.2807617-5.6831055c-3.3950195,0-5.5195313,2.6782227-5.7207031,5.6831055H246.2764893z"></path> <path class="st0" d="M256.1021729,25.8814163c0-5.9345703,3.4702148-10.0585928,8.7006836-10.0585928 c4.0234375,0,8.2978516,2.4643545,8.2978516,9.656249v1.2573242h-14.0185547 c0.1381836,4.1367188,2.5395508,6.3867188,6.0224609,6.3867188c2.3261719,0,4.0742188-1.0058594,4.828125-3.0166016 l2.8671875,0.8046875c-0.90625,2.9169922-3.7724609,4.8779297-7.6953125,4.8779297 C259.5220947,35.7891312,256.1021729,31.8164749,256.1021729,25.8814163z M270.0831299,24.1714554 c0-3.269043-2.0615234-5.6831055-5.2802734-5.6831055c-3.3945313,0-5.5195313,2.6782227-5.7207031,5.6831055H270.0831299z"></path> <path class="st0" d="M289.2139893,18.5889359h-4.1230469v11.265625c0,2.5146484,1.2568359,2.9169922,2.5644531,2.9169922 c0.6542969,0,1.0566406-0.1005859,1.3076172-0.1503906l0.6035156,2.6650391 c-0.4023438,0.1513672-1.1064453,0.3525391-2.2128906,0.3525391c-2.5146484,0-5.2304688-1.609375-5.2304688-4.9794922V18.5889359 h-2.9169922v-2.5146484h2.9169922v-4.6269522h2.9677734v4.6269522h4.1230469V18.5889359z"></path> <path class="st0" d="M295.9718018,29.9053421c0-4.4262695,3.9101563-5.2182617,7.4941406-5.6835938 c3.5195313-0.4526367,4.9785156-0.3271484,4.9785156-1.7602539v-0.1005859c0-2.4770508-1.3457031-3.9228516-4.0742188-3.9228516 c-2.828125,0-4.375,1.5087891-5.0292969,2.9169922l-2.8164063-1.0058594 c1.5097656-3.5205078,4.828125-4.5263662,7.7460938-4.5263662c2.4638672,0,7.140625,0.7041006,7.140625,6.8398428v12.7241211 h-2.9667969V32.771553h-0.1503906c-0.6035156,1.2578125-2.3642578,3.0683594-5.734375,3.0683594 C298.8887939,35.8399124,295.9718018,33.6768265,295.9718018,29.9053421z M308.444458,28.396553v-2.7163086 c-0.5029297,0.6035156-3.8730469,0.9555664-5.1298828,1.1064453c-2.3134766,0.3017578-4.3759766,1.0063477-4.3759766,3.269043 c0,2.0615234,1.7109375,3.1181641,4.0742188,3.1181641C306.5333252,33.1738968,308.444458,30.8106155,308.444458,28.396553z"></path> <path class="st0" d="M319.1260986,25.8311234c0-5.8842773,3.4707031-10.0082998,8.7011719-10.0082998 c4.0732422,0,7.140625,2.4140615,7.6445313,6.0351553h-2.9677734c-0.4521484-1.7602539-2.0117188-3.3696289-4.6269531-3.3696289 c-3.4697266,0-5.7841797,2.8666992-5.7841797,7.2421875c0,4.4765625,2.2636719,7.3925781,5.7841797,7.3925781 c2.3134766,0,4.0732422-1.2568359,4.6269531-3.3691406h2.9677734c-0.5039063,3.4199219-3.3203125,6.0351563-7.5947266,6.0351563 C322.4454346,35.7891312,319.1260986,31.615303,319.1260986,25.8311234z"></path> <path class="st0" d="M342.3800049,10.8438196c0-1.1064453,0.9550781-2.0117188,2.1123047-2.0117188 s2.1123047,0.9052734,2.1123047,2.0117188s-0.9550781,2.0117188-2.1123047,2.0117188 S342.3800049,11.9502649,342.3800049,10.8438196z M342.9835205,16.0742874h2.9667969v19.3125h-2.9667969V16.0742874z"></path> <path class="st0" d="M353.6641846,25.7808304c0-6.0854492,3.3701172-9.9580069,8.2480469-9.9580069 c3.7724609,0,4.9287109,2.3134756,5.5830078,3.319335h0.2509766V9.6367884h2.9677734v25.75h-2.8671875v-2.9667969h-0.3515625 c-0.6542969,1.0556641-1.9121094,3.3691406-5.6328125,3.3691406 C357.0343018,35.7891312,353.6641846,31.9160843,353.6641846,25.7808304z M367.7960205,25.7305374 c0-4.3251953-1.9101563-7.2421875-5.53125-7.2421875c-3.7724609,0-5.6328125,3.168457-5.6328125,7.2421875 c0,4.1240234,1.9101563,7.3925781,5.6328125,7.3925781C365.835083,33.1231155,367.7960205,30.106514,367.7960205,25.7305374z"></path> </g> </svg> 