<svg xmlns="http://www.w3.org/2000/svg" viewBox="0 0 29 29"><title>Asset 1</title><g id="Layer_2" data-name="Layer 2"><g id="Layer_1-2" data-name="Layer 1"><g id="Up_Arrow" data-name="Up Arrow"><path d="M14.5,29A14.5,14.5,0,1,1,29,14.5,14.52,14.52,0,0,1,14.5,29Zm0-28A13.5,13.5,0,1,0,28,14.5,13.52,13.52,0,0,0,14.5,1Z"/><path d="M14.5,22.64a.5.5,0,0,1-.5-.5V6.86a.5.5,0,1,1,1,0V22.14A.5.5,0,0,1,14.5,22.64Z"/><path d="M19.59,12.45a.46.46,0,0,1-.35-.14L14.5,7.57,9.76,12.31a.5.5,0,0,1-.7,0,.5.5,0,0,1,0-.71l5.09-5.09a.5.5,0,0,1,.7,0L20,11.6a.51.51,0,0,1,0,.71A.5.5,0,0,1,19.59,12.45Z"/></g></g></g></svg>